# xmcd CD database file
#
# Track frame offsets:
#	150
#	14799
#	35354
#	57445
#	72188
#	92638
#	117210
#	134609
#	149670
#	161066
#	194770
#	212131
#
# Disc length: 3052 seconds
#
# Revision: 2
# Processed by: cddbd v1.5.2PL0 Copyright (c) Steve Scherf et al.
# Submitted via: CDex 1.40Beta9
#
DISCID=c00bea0c
DTITLE=Red Stone - Red Stone Drum
DYEAR=2003
DGENRE=Native American
TTITLE0=Flag Song
TTITLE1=Eagle Feather
TTITLE2=Memorial Song
TTITLE3=Redstone Drum
TTITLE4=Thunder Clouds
TTITLE5=Echo Bay
TTITLE6=Reserve 2001
TTITLE7=Get Up and Dance
TTITLE8=The Creek Song
TTITLE9=Mother Earth
TTITLE10=Chief's Song
TTITLE11=Honoring the Elder
EXTD=YEAR: 2003 ID3G: 64
EXTT0=
EXTT1=
EXTT2=
EXTT3=
EXTT4=
EXTT5=
EXTT6=
EXTT7=
EXTT8=
EXTT9=
EXTT10=
EXTT11=
PLAYORDER=
